<?xml version="1.0" encoding="UTF-8" ?>
<!DOCTYPE svg PUBLIC "-//W3C//DTD SVG 1.1//EN" "http://www.w3.org/Graphics/SVG/1.1/DTD/svg11.dtd">
<svg width="225pt" height="225pt" viewBox="0 0 225 225" version="1.1" xmlns="http://www.w3.org/2000/svg">
<g id="#00ccb3ff">
<path fill="#00ccb3" opacity="1.00" d=" M 0.00 0.00 L 225.00 0.00 L 225.00 225.00 L 0.00 225.00 L 0.00 0.00 M 85.02 64.04 C 83.92 65.52 82.22 67.08 80.22 66.20 C 75.81 64.00 72.57 59.75 67.70 58.46 C 66.98 65.30 67.57 72.19 67.35 79.05 C 67.49 81.67 66.62 85.05 69.29 86.72 C 74.86 91.20 80.72 95.32 86.33 99.75 C 87.68 100.63 89.06 102.09 90.83 101.62 C 92.99 101.33 93.84 99.01 93.83 97.10 C 94.15 87.57 101.45 79.13 110.43 76.44 C 112.15 75.76 114.91 75.29 114.97 72.95 C 115.11 66.27 115.02 59.59 115.01 52.91 C 115.46 50.66 113.15 48.67 110.99 49.11 C 100.86 50.51 91.33 55.99 85.02 64.04 M 119.99 52.91 C 119.96 59.30 119.97 65.69 119.99 72.07 C 119.73 74.34 122.12 75.48 123.97 75.93 C 133.73 78.47 141.22 87.95 141.21 98.07 C 141.67 107.92 135.15 117.55 125.91 120.91 C 117.94 124.02 108.71 122.11 102.01 117.01 C 90.88 108.75 79.95 100.23 68.85 91.93 C 68.48 92.27 67.73 92.95 67.36 93.30 C 67.38 118.20 67.35 143.10 67.38 168.00 C 67.14 171.58 70.17 175.14 73.86 174.92 C 78.62 174.96 83.39 175.04 88.15 174.88 C 91.52 174.63 94.00 171.33 93.78 168.04 C 93.79 159.60 93.79 151.16 93.76 142.72 C 107.92 150.62 125.99 150.74 140.32 143.19 C 152.95 136.80 162.55 124.77 165.99 111.04 C 169.48 97.73 167.02 83.03 159.47 71.54 C 151.67 59.39 138.37 50.97 124.05 49.11 C 121.88 48.63 119.56 50.67 119.99 52.91 Z" />
</g>
<g id="#a9ff8aff">
<path fill="#a9ff8a" opacity="1.00" d=" M 85.02 64.04 C 91.33 55.99 100.86 50.51 110.99 49.11 C 113.15 48.67 115.46 50.66 115.01 52.91 C 115.02 59.59 115.11 66.27 114.97 72.95 C 114.91 75.29 112.15 75.76 110.43 76.44 C 101.45 79.13 94.15 87.57 93.83 97.10 C 93.84 99.01 92.99 101.33 90.83 101.62 C 89.06 102.09 87.68 100.63 86.33 99.75 C 80.72 95.32 74.86 91.20 69.29 86.72 C 66.62 85.05 67.49 81.67 67.35 79.05 C 67.57 72.19 66.98 65.30 67.70 58.46 C 72.57 59.75 75.81 64.00 80.22 66.20 C 82.22 67.08 83.92 65.52 85.02 64.04 Z" />
</g>
<g id="#ffffffff">
<path fill="#ffffff" opacity="1.00" d=" M 119.99 52.91 C 119.56 50.67 121.88 48.63 124.05 49.11 C 138.37 50.97 151.67 59.39 159.47 71.54 C 167.02 83.03 169.48 97.73 165.99 111.04 C 162.55 124.77 152.95 136.80 140.32 143.19 C 125.99 150.74 107.92 150.62 93.76 142.72 C 93.79 151.16 93.79 159.60 93.78 168.04 C 94.00 171.33 91.52 174.63 88.15 174.88 C 83.39 175.04 78.62 174.96 73.86 174.92 C 70.17 175.14 67.14 171.58 67.38 168.00 C 67.35 143.10 67.38 118.20 67.36 93.30 C 67.73 92.95 68.48 92.27 68.85 91.93 C 79.95 100.23 90.88 108.75 102.01 117.01 C 108.71 122.11 117.94 124.02 125.91 120.91 C 135.15 117.55 141.67 107.92 141.21 98.07 C 141.22 87.95 133.73 78.47 123.97 75.93 C 122.12 75.48 119.73 74.34 119.99 72.07 C 119.97 65.69 119.96 59.30 119.99 52.91 Z" />
</g>
</svg>
